# xmcd
#
# Track frame offsets:
#	150
#	18030
#	34452
#	51440
#	66895
#	83867
#	104225
#	117052
#	129450
#	152687
#	168005
#	185432
#	207335
#	223627
#	239470
#	255272
#	270947
#	285097
#	306817
#	322160
#
# Disc length: 4508 seconds
#
# Revision: 0
# Processed by: cddbd v1.5.2PL0 Copyright (c) Steve Scherf et al.
# Submitted via: audiograbber 1.83.01
#
DISCID=16119a14
DTITLE=Kenny Rogers - Through The Years: A Retrospective [CD 4) - 1983-1997
DYEAR=1998
DGENRE=Country
TTITLE0=Kenny Rogers - This Woman
TTITLE1=Kenny Rogers - Evening Star
TTITLE2=Kenny Rogers - Twentieth Century Fool
TTITLE3=Kenny Rogers - Love Is What We Make It
TTITLE4=Kenny Rogers - Twenty Years Ago
TTITLE5=Kenny Rogers - They Don't Make Them Like They Used To
TTITLE6=Kenny Rogers with Nickie Ryder - The Pride Is Back
TTITLE7=Kenny Rogers - Goodbye Marie
TTITLE8=Kenny Rogers - I Prefer The Moonlight
TTITLE9=Kenny Rogers - The Factory
TTITLE10=Kenny Rogers - When You Put Your Heart In It
TTITLE11=Kenny Rogers - Planet Texas
TTITLE12=Anne Murray and Kenny Rogers - If I Ever Fall In Love Again
TTITLE13=Kenny Rogers - The Vows Go Unbroken (Always True To You)
TTITLE14=Kenny Rogers and Holly Dunn - Maybe
TTITLE15=Kenny Rogers with Dolly Parton - Love Is Strange
TTITLE16=Kenny Rogers - If You Want To Find Love
TTITLE17=Kenny Rogers - Have I Told You Lately That I Love You?
TTITLE18=Kenny Rogers - Unforgettable
TTITLE19=Kenny Rogers - Write Your Name Across My Heart
EXTD=
EXTT0=
EXTT1=
EXTT2=
EXTT3=
EXTT4=
EXTT5=
EXTT6=
EXTT7=
EXTT8=
EXTT9=
EXTT10=
EXTT11=
EXTT12=
EXTT13=
EXTT14=
EXTT15=
EXTT16=
EXTT17=
EXTT18=
EXTT19=
PLAYORDER=
